<svg width="92" height="86" viewBox="0 0 92 86" fill="none" xmlns="http://www.w3.org/2000/svg">
<g opacity="0.3">
<mask id="mask0_1_11" style="mask-type:alpha" maskUnits="userSpaceOnUse" x="0" y="0" width="9" height="10">
<path d="M4.26593 9.55858C6.57361 9.55858 8.44435 7.60906 8.44435 5.20425C8.44435 2.79944 6.57361 0.849976 4.26593 0.849976C1.95826 0.849976 0.0875244 2.79944 0.0875244 5.20425C0.0875244 7.60906 1.95826 9.55858 4.26593 9.55858Z" fill="url(#paint0_linear_1_11)"/>
</mask>
<g mask="url(#mask0_1_11)">
<path d="M4.26593 9.55858C6.57361 9.55858 8.44435 7.60906 8.44435 5.20425C8.44435 2.79944 6.57361 0.849976 4.26593 0.849976C1.95826 0.849976 0.0875244 2.79944 0.0875244 5.20425C0.0875244 7.60906 1.95826 9.55858 4.26593 9.55858Z" fill="url(#paint1_linear_1_11)"/>
</g>
<mask id="mask1_1_11" style="mask-type:alpha" maskUnits="userSpaceOnUse" x="24" y="0" width="9" height="10">
<path d="M28.4655 9.55861C30.7731 9.55861 32.6439 7.60909 32.6439 5.20428C32.6439 2.79948 30.7731 0.850006 28.4655 0.850006C26.1578 0.850006 24.287 2.79948 24.287 5.20428C24.287 7.60909 26.1578 9.55861 28.4655 9.55861Z" fill="url(#paint2_linear_1_11)"/>
</mask>
<g mask="url(#mask1_1_11)">
<path d="M28.4658 9.55861C30.7735 9.55861 32.6443 7.60909 32.6443 5.20428C32.6443 2.79948 30.7735 0.850006 28.4658 0.850006C26.1582 0.850006 24.2874 2.79948 24.2874 5.20428C24.2874 7.60909 26.1582 9.55861 28.4658 9.55861Z" fill="url(#paint3_linear_1_11)"/>
</g>
<mask id="mask2_1_11" style="mask-type:alpha" maskUnits="userSpaceOnUse" x="48" y="0" width="9" height="10">
<path d="M52.6651 9.55861C54.9727 9.55861 56.8435 7.60909 56.8435 5.20428C56.8435 2.79948 54.9727 0.850006 52.6651 0.850006C50.3574 0.850006 48.4866 2.79948 48.4866 5.20428C48.4866 7.60909 50.3574 9.55861 52.6651 9.55861Z" fill="url(#paint4_linear_1_11)"/>
</mask>
<g mask="url(#mask2_1_11)">
<path d="M52.6657 9.55861C54.9734 9.55861 56.8441 7.60909 56.8441 5.20428C56.8441 2.79948 54.9734 0.850006 52.6657 0.850006C50.358 0.850006 48.4873 2.79948 48.4873 5.20428C48.4873 7.60909 50.358 9.55861 52.6657 9.55861Z" fill="url(#paint5_linear_1_11)"/>
</g>
<mask id="mask3_1_11" style="mask-type:alpha" maskUnits="userSpaceOnUse" x="72" y="0" width="10" height="10">
<path d="M76.8645 9.55861C79.1722 9.55861 81.0429 7.60909 81.0429 5.20428C81.0429 2.79948 79.1722 0.850006 76.8645 0.850006C74.5568 0.850006 72.6861 2.79948 72.6861 5.20428C72.6861 7.60909 74.5568 9.55861 76.8645 9.55861Z" fill="url(#paint6_linear_1_11)"/>
</mask>
<g mask="url(#mask3_1_11)">
<path d="M76.8651 9.55861C79.1728 9.55861 81.0435 7.60909 81.0435 5.20428C81.0435 2.79948 79.1728 0.850006 76.8651 0.850006C74.5575 0.850006 72.6867 2.79948 72.6867 5.20428C72.6867 7.60909 74.5575 9.55861 76.8651 9.55861Z" fill="url(#paint7_linear_1_11)"/>
</g>
<mask id="mask4_1_11" style="mask-type:alpha" maskUnits="userSpaceOnUse" x="0" y="22" width="9" height="10">
<path d="M4.26593 31.4207C6.57361 31.4207 8.44435 29.4712 8.44435 27.0664C8.44435 24.6616 6.57361 22.7122 4.26593 22.7122C1.95826 22.7122 0.0875244 24.6616 0.0875244 27.0664C0.0875244 29.4712 1.95826 31.4207 4.26593 31.4207Z" fill="url(#paint8_linear_1_11)"/>
</mask>
<g mask="url(#mask4_1_11)">
<path d="M4.26593 31.4207C6.57361 31.4207 8.44435 29.4713 8.44435 27.0665C8.44435 24.6617 6.57361 22.7122 4.26593 22.7122C1.95826 22.7122 0.0875244 24.6617 0.0875244 27.0665C0.0875244 29.4713 1.95826 31.4207 4.26593 31.4207Z" fill="url(#paint9_linear_1_11)"/>
</g>
<mask id="mask5_1_11" style="mask-type:alpha" maskUnits="userSpaceOnUse" x="24" y="22" width="9" height="10">
<path d="M28.4655 31.4208C30.7731 31.4208 32.6439 29.4713 32.6439 27.0665C32.6439 24.6617 30.7731 22.7122 28.4655 22.7122C26.1578 22.7122 24.287 24.6617 24.287 27.0665C24.287 29.4713 26.1578 31.4208 28.4655 31.4208Z" fill="url(#paint10_linear_1_11)"/>
</mask>
<g mask="url(#mask5_1_11)">
<path d="M28.4658 31.4207C30.7735 31.4207 32.6443 29.4712 32.6443 27.0664C32.6443 24.6617 30.7735 22.7122 28.4658 22.7122C26.1582 22.7122 24.2874 24.6617 24.2874 27.0664C24.2874 29.4712 26.1582 31.4207 28.4658 31.4207Z" fill="url(#paint11_linear_1_11)"/>
</g>
<mask id="mask6_1_11" style="mask-type:alpha" maskUnits="userSpaceOnUse" x="48" y="22" width="9" height="10">
<path d="M52.6651 31.4208C54.9727 31.4208 56.8435 29.4713 56.8435 27.0665C56.8435 24.6617 54.9727 22.7122 52.6651 22.7122C50.3574 22.7122 48.4866 24.6617 48.4866 27.0665C48.4866 29.4713 50.3574 31.4208 52.6651 31.4208Z" fill="url(#paint12_linear_1_11)"/>
</mask>
<g mask="url(#mask6_1_11)">
<path d="M52.6657 31.4207C54.9734 31.4207 56.8441 29.4712 56.8441 27.0664C56.8441 24.6617 54.9734 22.7122 52.6657 22.7122C50.358 22.7122 48.4873 24.6617 48.4873 27.0664C48.4873 29.4712 50.358 31.4207 52.6657 31.4207Z" fill="url(#paint13_linear_1_11)"/>
</g>
<mask id="mask7_1_11" style="mask-type:alpha" maskUnits="userSpaceOnUse" x="72" y="22" width="10" height="10">
<path d="M76.8645 31.4208C79.1722 31.4208 81.0429 29.4713 81.0429 27.0665C81.0429 24.6617 79.1722 22.7122 76.8645 22.7122C74.5568 22.7122 72.6861 24.6617 72.6861 27.0665C72.6861 29.4713 74.5568 31.4208 76.8645 31.4208Z" fill="url(#paint14_linear_1_11)"/>
</mask>
<g mask="url(#mask7_1_11)">
<path d="M76.8651 31.4207C79.1728 31.4207 81.0435 29.4712 81.0435 27.0664C81.0435 24.6617 79.1728 22.7122 76.8651 22.7122C74.5575 22.7122 72.6867 24.6617 72.6867 27.0664C72.6867 29.4712 74.5575 31.4207 76.8651 31.4207Z" fill="url(#paint15_linear_1_11)"/>
</g>
<mask id="mask8_1_11" style="mask-type:alpha" maskUnits="userSpaceOnUse" x="0" y="44" width="9" height="10">
<path d="M4.26593 53.2376C6.57361 53.2376 8.44435 51.2881 8.44435 48.8833C8.44435 46.4785 6.57361 44.529 4.26593 44.529C1.95826 44.529 0.0875244 46.4785 0.0875244 48.8833C0.0875244 51.2881 1.95826 53.2376 4.26593 53.2376Z" fill="url(#paint16_linear_1_11)"/>
</mask>
<g mask="url(#mask8_1_11)">
<path d="M4.26593 53.2377C6.57361 53.2377 8.44435 51.2882 8.44435 48.8834C8.44435 46.4786 6.57361 44.5291 4.26593 44.5291C1.95826 44.5291 0.0875244 46.4786 0.0875244 48.8834C0.0875244 51.2882 1.95826 53.2377 4.26593 53.2377Z" fill="url(#paint17_linear_1_11)"/>
</g>
<mask id="mask9_1_11" style="mask-type:alpha" maskUnits="userSpaceOnUse" x="24" y="44" width="9" height="10">
<path d="M28.4655 53.238C30.7731 53.238 32.6439 51.2885 32.6439 48.8837C32.6439 46.4788 30.7731 44.5294 28.4655 44.5294C26.1578 44.5294 24.287 46.4788 24.287 48.8837C24.287 51.2885 26.1578 53.238 28.4655 53.238Z" fill="url(#paint18_linear_1_11)"/>
</mask>
<g mask="url(#mask9_1_11)">
<path d="M28.4658 53.2378C30.7735 53.2378 32.6443 51.2883 32.6443 48.8835C32.6443 46.4787 30.7735 44.5292 28.4658 44.5292C26.1582 44.5292 24.2874 46.4787 24.2874 48.8835C24.2874 51.2883 26.1582 53.2378 28.4658 53.2378Z" fill="url(#paint19_linear_1_11)"/>
</g>
<mask id="mask10_1_11" style="mask-type:alpha" maskUnits="userSpaceOnUse" x="48" y="44" width="9" height="10">
<path d="M52.6651 53.238C54.9727 53.238 56.8435 51.2885 56.8435 48.8837C56.8435 46.4788 54.9727 44.5294 52.6651 44.5294C50.3574 44.5294 48.4866 46.4788 48.4866 48.8837C48.4866 51.2885 50.3574 53.238 52.6651 53.238Z" fill="url(#paint20_linear_1_11)"/>
</mask>
<g mask="url(#mask10_1_11)">
<path d="M52.6657 53.2378C54.9734 53.2378 56.8441 51.2883 56.8441 48.8835C56.8441 46.4787 54.9734 44.5292 52.6657 44.5292C50.358 44.5292 48.4873 46.4787 48.4873 48.8835C48.4873 51.2883 50.358 53.2378 52.6657 53.2378Z" fill="url(#paint21_linear_1_11)"/>
</g>
<mask id="mask11_1_11" style="mask-type:alpha" maskUnits="userSpaceOnUse" x="72" y="44" width="10" height="10">
<path d="M76.8645 53.238C79.1722 53.238 81.0429 51.2885 81.0429 48.8837C81.0429 46.4788 79.1722 44.5294 76.8645 44.5294C74.5568 44.5294 72.6861 46.4788 72.6861 48.8837C72.6861 51.2885 74.5568 53.238 76.8645 53.238Z" fill="url(#paint22_linear_1_11)"/>
</mask>
<g mask="url(#mask11_1_11)">
<path d="M76.8651 53.2378C79.1728 53.2378 81.0435 51.2883 81.0435 48.8835C81.0435 46.4787 79.1728 44.5292 76.8651 44.5292C74.5575 44.5292 72.6867 46.4787 72.6867 48.8835C72.6867 51.2883 74.5575 53.2378 76.8651 53.2378Z" fill="url(#paint23_linear_1_11)"/>
</g>
<mask id="mask12_1_11" style="mask-type:alpha" maskUnits="userSpaceOnUse" x="0" y="66" width="9" height="10">
<path d="M4.26593 75.1002C6.57361 75.1002 8.44435 73.1507 8.44435 70.7459C8.44435 68.3411 6.57361 66.3916 4.26593 66.3916C1.95826 66.3916 0.0875244 68.3411 0.0875244 70.7459C0.0875244 73.1507 1.95826 75.1002 4.26593 75.1002Z" fill="url(#paint24_linear_1_11)"/>
</mask>
<g mask="url(#mask12_1_11)">
<path d="M4.26593 75.1C6.57361 75.1 8.44435 73.1504 8.44435 70.7456C8.44435 68.3408 6.57361 66.3914 4.26593 66.3914C1.95826 66.3914 0.0875244 68.3408 0.0875244 70.7456C0.0875244 73.1504 1.95826 75.1 4.26593 75.1Z" fill="url(#paint25_linear_1_11)"/>
</g>
<mask id="mask13_1_11" style="mask-type:alpha" maskUnits="userSpaceOnUse" x="24" y="66" width="9" height="10">
<path d="M28.4655 75.1002C30.7731 75.1002 32.6439 73.1507 32.6439 70.7459C32.6439 68.3411 30.7731 66.3916 28.4655 66.3916C26.1578 66.3916 24.287 68.3411 24.287 70.7459C24.287 73.1507 26.1578 75.1002 28.4655 75.1002Z" fill="url(#paint26_linear_1_11)"/>
</mask>
<g mask="url(#mask13_1_11)">
<path d="M28.4658 75.1C30.7735 75.1 32.6443 73.1504 32.6443 70.7456C32.6443 68.3408 30.7735 66.3914 28.4658 66.3914C26.1582 66.3914 24.2874 68.3408 24.2874 70.7456C24.2874 73.1504 26.1582 75.1 28.4658 75.1Z" fill="url(#paint27_linear_1_11)"/>
</g>
<mask id="mask14_1_11" style="mask-type:alpha" maskUnits="userSpaceOnUse" x="48" y="66" width="9" height="10">
<path d="M52.6651 75.1002C54.9727 75.1002 56.8435 73.1507 56.8435 70.7459C56.8435 68.3411 54.9727 66.3916 52.6651 66.3916C50.3574 66.3916 48.4866 68.3411 48.4866 70.7459C48.4866 73.1507 50.3574 75.1002 52.6651 75.1002Z" fill="url(#paint28_linear_1_11)"/>
</mask>
<g mask="url(#mask14_1_11)">
<path d="M52.6657 75.1C54.9734 75.1 56.8441 73.1504 56.8441 70.7456C56.8441 68.3408 54.9734 66.3914 52.6657 66.3914C50.358 66.3914 48.4873 68.3408 48.4873 70.7456C48.4873 73.1504 50.358 75.1 52.6657 75.1Z" fill="url(#paint29_linear_1_11)"/>
</g>
<mask id="mask15_1_11" style="mask-type:alpha" maskUnits="userSpaceOnUse" x="72" y="66" width="10" height="10">
<path d="M76.8645 75.1002C79.1722 75.1002 81.0429 73.1507 81.0429 70.7459C81.0429 68.3411 79.1722 66.3916 76.8645 66.3916C74.5568 66.3916 72.6861 68.3411 72.6861 70.7459C72.6861 73.1507 74.5568 75.1002 76.8645 75.1002Z" fill="url(#paint30_linear_1_11)"/>
</mask>
<g mask="url(#mask15_1_11)">
<path d="M76.8651 75.1C79.1728 75.1 81.0435 73.1504 81.0435 70.7456C81.0435 68.3408 79.1728 66.3914 76.8651 66.3914C74.5575 66.3914 72.6867 68.3408 72.6867 70.7456C72.6867 73.1504 74.5575 75.1 76.8651 75.1Z" fill="url(#paint31_linear_1_11)"/>
</g>
</g>
<defs>
<linearGradient id="paint0_linear_1_11" x1="40.7812" y1="101.797" x2="-20.8034" y2="-48.2183" gradientUnits="userSpaceOnUse">
<stop stop-color="#FFA434"/>
<stop offset="1" stop-color="#FFA434"/>
</linearGradient>
<linearGradient id="paint1_linear_1_11" x1="40.7812" y1="101.797" x2="-20.8034" y2="-48.2183" gradientUnits="userSpaceOnUse">
<stop stop-color="#FFA434"/>
<stop offset="1" stop-color="#FFA434"/>
</linearGradient>
<linearGradient id="paint2_linear_1_11" x1="64.9808" y1="101.797" x2="3.39626" y2="-48.2184" gradientUnits="userSpaceOnUse">
<stop stop-color="#FFA434"/>
<stop offset="1" stop-color="#FFA434"/>
</linearGradient>
<linearGradient id="paint3_linear_1_11" x1="64.9812" y1="101.797" x2="3.39663" y2="-48.2184" gradientUnits="userSpaceOnUse">
<stop stop-color="#FFA434"/>
<stop offset="1" stop-color="#FFA434"/>
</linearGradient>
<linearGradient id="paint4_linear_1_11" x1="89.1804" y1="101.797" x2="27.5958" y2="-48.2184" gradientUnits="userSpaceOnUse">
<stop stop-color="#FFA434"/>
<stop offset="1" stop-color="#FFA434"/>
</linearGradient>
<linearGradient id="paint5_linear_1_11" x1="89.1811" y1="101.797" x2="27.5965" y2="-48.2184" gradientUnits="userSpaceOnUse">
<stop stop-color="#FFA434"/>
<stop offset="1" stop-color="#FFA434"/>
</linearGradient>
<linearGradient id="paint6_linear_1_11" x1="113.38" y1="101.797" x2="51.7953" y2="-48.2184" gradientUnits="userSpaceOnUse">
<stop stop-color="#FFA434"/>
<stop offset="1" stop-color="#FFA434"/>
</linearGradient>
<linearGradient id="paint7_linear_1_11" x1="113.38" y1="101.797" x2="51.7959" y2="-48.2184" gradientUnits="userSpaceOnUse">
<stop stop-color="#FFA434"/>
<stop offset="1" stop-color="#FFA434"/>
</linearGradient>
<linearGradient id="paint8_linear_1_11" x1="40.7812" y1="123.658" x2="-20.8023" y2="-26.3561" gradientUnits="userSpaceOnUse">
<stop stop-color="#FFA434"/>
<stop offset="1" stop-color="#FFA434"/>
</linearGradient>
<linearGradient id="paint9_linear_1_11" x1="40.7812" y1="123.658" x2="-20.8023" y2="-26.356" gradientUnits="userSpaceOnUse">
<stop stop-color="#FFA434"/>
<stop offset="1" stop-color="#FFA434"/>
</linearGradient>
<linearGradient id="paint10_linear_1_11" x1="64.9808" y1="123.658" x2="3.3973" y2="-26.3561" gradientUnits="userSpaceOnUse">
<stop stop-color="#FFA434"/>
<stop offset="1" stop-color="#FFA434"/>
</linearGradient>
<linearGradient id="paint11_linear_1_11" x1="64.9812" y1="123.658" x2="3.39766" y2="-26.3561" gradientUnits="userSpaceOnUse">
<stop stop-color="#FFA434"/>
<stop offset="1" stop-color="#FFA434"/>
</linearGradient>
<linearGradient id="paint12_linear_1_11" x1="89.1804" y1="123.658" x2="27.5969" y2="-26.3561" gradientUnits="userSpaceOnUse">
<stop stop-color="#FFA434"/>
<stop offset="1" stop-color="#FFA434"/>
</linearGradient>
<linearGradient id="paint13_linear_1_11" x1="89.1811" y1="123.658" x2="27.5976" y2="-26.3561" gradientUnits="userSpaceOnUse">
<stop stop-color="#FFA434"/>
<stop offset="1" stop-color="#FFA434"/>
</linearGradient>
<linearGradient id="paint14_linear_1_11" x1="113.38" y1="123.658" x2="51.7963" y2="-26.3561" gradientUnits="userSpaceOnUse">
<stop stop-color="#FFA434"/>
<stop offset="1" stop-color="#FFA434"/>
</linearGradient>
<linearGradient id="paint15_linear_1_11" x1="113.38" y1="123.658" x2="51.797" y2="-26.3561" gradientUnits="userSpaceOnUse">
<stop stop-color="#FFA434"/>
<stop offset="1" stop-color="#FFA434"/>
</linearGradient>
<linearGradient id="paint16_linear_1_11" x1="40.7812" y1="145.476" x2="-20.8034" y2="-4.53929" gradientUnits="userSpaceOnUse">
<stop stop-color="#FFA434"/>
<stop offset="1" stop-color="#FFA434"/>
</linearGradient>
<linearGradient id="paint17_linear_1_11" x1="40.7812" y1="145.476" x2="-20.8034" y2="-4.53919" gradientUnits="userSpaceOnUse">
<stop stop-color="#FFA434"/>
<stop offset="1" stop-color="#FFA434"/>
</linearGradient>
<linearGradient id="paint18_linear_1_11" x1="64.9808" y1="145.477" x2="3.39626" y2="-4.539" gradientUnits="userSpaceOnUse">
<stop stop-color="#FFA434"/>
<stop offset="1" stop-color="#FFA434"/>
</linearGradient>
<linearGradient id="paint19_linear_1_11" x1="64.9812" y1="145.476" x2="3.39663" y2="-4.53919" gradientUnits="userSpaceOnUse">
<stop stop-color="#FFA434"/>
<stop offset="1" stop-color="#FFA434"/>
</linearGradient>
<linearGradient id="paint20_linear_1_11" x1="89.1804" y1="145.477" x2="27.5958" y2="-4.539" gradientUnits="userSpaceOnUse">
<stop stop-color="#FFA434"/>
<stop offset="1" stop-color="#FFA434"/>
</linearGradient>
<linearGradient id="paint21_linear_1_11" x1="89.1811" y1="145.476" x2="27.5965" y2="-4.53919" gradientUnits="userSpaceOnUse">
<stop stop-color="#FFA434"/>
<stop offset="1" stop-color="#FFA434"/>
</linearGradient>
<linearGradient id="paint22_linear_1_11" x1="113.38" y1="145.477" x2="51.7953" y2="-4.539" gradientUnits="userSpaceOnUse">
<stop stop-color="#FFA434"/>
<stop offset="1" stop-color="#FFA434"/>
</linearGradient>
<linearGradient id="paint23_linear_1_11" x1="113.38" y1="145.476" x2="51.7959" y2="-4.53919" gradientUnits="userSpaceOnUse">
<stop stop-color="#FFA434"/>
<stop offset="1" stop-color="#FFA434"/>
</linearGradient>
<linearGradient id="paint24_linear_1_11" x1="40.7812" y1="167.339" x2="-20.8034" y2="17.3233" gradientUnits="userSpaceOnUse">
<stop stop-color="#FFA434"/>
<stop offset="1" stop-color="#FFA434"/>
</linearGradient>
<linearGradient id="paint25_linear_1_11" x1="40.7812" y1="167.339" x2="-20.8034" y2="17.323" gradientUnits="userSpaceOnUse">
<stop stop-color="#FFA434"/>
<stop offset="1" stop-color="#FFA434"/>
</linearGradient>
<linearGradient id="paint26_linear_1_11" x1="64.9808" y1="167.339" x2="3.39626" y2="17.3232" gradientUnits="userSpaceOnUse">
<stop stop-color="#FFA434"/>
<stop offset="1" stop-color="#FFA434"/>
</linearGradient>
<linearGradient id="paint27_linear_1_11" x1="64.9812" y1="167.339" x2="3.39663" y2="17.323" gradientUnits="userSpaceOnUse">
<stop stop-color="#FFA434"/>
<stop offset="1" stop-color="#FFA434"/>
</linearGradient>
<linearGradient id="paint28_linear_1_11" x1="89.1804" y1="167.339" x2="27.5958" y2="17.3232" gradientUnits="userSpaceOnUse">
<stop stop-color="#FFA434"/>
<stop offset="1" stop-color="#FFA434"/>
</linearGradient>
<linearGradient id="paint29_linear_1_11" x1="89.1811" y1="167.339" x2="27.5965" y2="17.323" gradientUnits="userSpaceOnUse">
<stop stop-color="#FFA434"/>
<stop offset="1" stop-color="#FFA434"/>
</linearGradient>
<linearGradient id="paint30_linear_1_11" x1="113.38" y1="167.339" x2="51.7953" y2="17.3232" gradientUnits="userSpaceOnUse">
<stop stop-color="#FFA434"/>
<stop offset="1" stop-color="#FFA434"/>
</linearGradient>
<linearGradient id="paint31_linear_1_11" x1="113.38" y1="167.339" x2="51.7959" y2="17.323" gradientUnits="userSpaceOnUse">
<stop stop-color="#FFA434"/>
<stop offset="1" stop-color="#FFA434"/>
</linearGradient>
</defs>
</svg>
